<svg width="12" height="12" viewBox="0 0 12 12" fill="none" xmlns="http://www.w3.org/2000/svg">
<rect x="0.248276" y="0.248276" width="11.5034" height="11.5034" fill="black" stroke="white" stroke-width="0.496552"/>
<path d="M0 6H12" stroke="black" stroke-width="2"/>
<path d="M6.91691 6.08413C6.90036 6.09406 6.90036 6.10399 6.91691 6.11392C7.26781 6.26289 7.44326 6.5393 7.44326 6.94317C7.44326 7.24772 7.34229 7.48275 7.14036 7.64827C6.93843 7.81379 6.67526 7.89655 6.35084 7.89655H5.11443C5.08132 7.89655 5.06477 7.87999 5.06477 7.84689V4.47034C5.06477 4.43723 5.08132 4.42068 5.11443 4.42068H6.31112C6.65539 4.42068 6.92188 4.50013 7.11057 4.65903C7.30257 4.81461 7.39857 5.04303 7.39857 5.34427C7.39857 5.70179 7.23801 5.94841 6.91691 6.08413ZM5.56132 4.83282C5.54808 4.83282 5.54146 4.83944 5.54146 4.85268V5.90041C5.54146 5.91365 5.54808 5.92027 5.56132 5.92027H6.31112C6.50312 5.92027 6.65374 5.87227 6.76298 5.77627C6.87553 5.68027 6.93181 5.54951 6.93181 5.38399C6.93181 5.21517 6.87553 5.0811 6.76298 4.98179C6.65374 4.88248 6.50312 4.83282 6.31112 4.83282H5.56132ZM6.35084 7.47944C6.53953 7.47944 6.6885 7.42813 6.79774 7.32551C6.91029 7.21958 6.96657 7.07724 6.96657 6.89848C6.96657 6.71972 6.91029 6.57903 6.79774 6.47641C6.68519 6.37048 6.53126 6.31751 6.33595 6.31751H5.56132C5.54808 6.31751 5.54146 6.32413 5.54146 6.33737V7.45958C5.54146 7.47282 5.54808 7.47944 5.56132 7.47944H6.35084Z" fill="white"/>
</svg>
